<?xml version="1.0" encoding="UTF-8"?>
<svg version="1.1" viewBox="0 0 177.17 177.17" xmlns="http://www.w3.org/2000/svg" xmlns:xlink="http://www.w3.org/1999/xlink">
 <defs>
  <linearGradient id="g" x1="97.5" x2="97.5" y1="55.38" y2="135.2" gradientTransform="translate(-6.5513 -6.9678)" gradientUnits="userSpaceOnUse">
   <stop stop-color="#5d92ab" offset="0"/>
   <stop stop-color="#5791a9" offset=".5"/>
   <stop stop-color="#3d6f81" stop-opacity=".63545" offset="1"/>
  </linearGradient>
  <linearGradient id="h" x1="6.9473" x2="171.93" y1="2.5976" y2="167.58" gradientTransform="translate(-6.5513 -6.9678)" gradientUnits="userSpaceOnUse">
   <stop stop-color="#66a1bc" stop-opacity="0" offset="0"/>
   <stop stop-color="#7bccee" stop-opacity=".74247" offset=".40493"/>
   <stop stop-color="#84dbff" offset=".54576"/>
   <stop stop-color="#7bccee" stop-opacity=".70569" offset=".81319"/>
   <stop stop-color="#488297" stop-opacity="0" offset="1"/>
  </linearGradient>
  <linearGradient id="i" x1="99.464" x2="99.464" y1="102.7" y2="109.13" gradientTransform="matrix(.89719 0 0 .89719 7.7103 6.0434)" gradientUnits="userSpaceOnUse">
   <stop stop-color="#a6a6a6" offset="0"/>
   <stop stop-color="#d0d0d0" offset=".088375"/>
   <stop stop-color="#e2e2e2" offset=".53604"/>
   <stop stop-color="#b1b1b1" offset=".94704"/>
   <stop stop-color="#a5a5a5" offset="1"/>
  </linearGradient>
  <linearGradient id="j" x1="66.013" x2="66.013" y1="102.73" y2="110.51" gradientTransform="matrix(.62421 0 0 .62421 69.233 48.824)" gradientUnits="userSpaceOnUse">
   <stop stop-color="#a6a6a6" offset="0"/>
   <stop stop-color="#d0d0d0" offset=".088375"/>
   <stop stop-color="#e2e2e2" offset=".55016"/>
   <stop stop-color="#b1b1b1" offset=".77508"/>
   <stop stop-color="#a5a5a5" offset="1"/>
  </linearGradient>
  <linearGradient id="k" x1="101.09" x2="99.276" y1="118.91" y2="122.06" gradientTransform="matrix(1.1214 0 0 1.1875 -17.058 -31.486)" gradientUnits="userSpaceOnUse">
   <stop stop-color="#a6a6a6" offset="0"/>
   <stop stop-color="#d0d0d0" offset=".088375"/>
   <stop stop-color="#e2e2e2" offset=".73874"/>
   <stop stop-color="#b1b1b1" offset=".91947"/>
   <stop stop-color="#a5a5a5" offset="1"/>
  </linearGradient>
  <linearGradient id="l" x1="84.893" x2="98.316" y1="19.944" y2="36.654" gradientUnits="userSpaceOnUse">
   <stop stop-color="#d6c056" stop-opacity="0" offset="0"/>
   <stop stop-color="#ffff8c" offset=".5"/>
   <stop stop-color="#d6c056" stop-opacity="0" offset="1"/>
  </linearGradient>
 </defs>
 <g transform="translate(0 -1.9073e-6)">
  <rect x="22.511" y="47.528" width="132.14" height="82.833" ry="5.9101" fill="#518197"/>
  <rect x="22.511" y="46.805" width="132.14" height="82.833" ry="5.9101" fill="url(#g)"/>
  <rect x="22.511" y="46.805" width="132.14" height="82.833" ry="5.9101" fill="url(#h)" opacity=".85771"/>
  <g transform="matrix(.98194 0 0 1.0184 -6.5513 -6.9678)" fill="#5e9cb6">
   <path d="m44.937 104.31v-4.6169h-1.1542v-1.1542h1.1542c0.31862 6e-6 0.58914 0.11423 0.81157 0.34266 0.22844 0.22845 0.34266 0.49897 0.34266 0.81157v4.6169z"/>
   <path d="m47.469 104.31v-2.3085c0-0.31861 0.11122-0.58914 0.33365-0.81157 0.22844-0.22844 0.50197-0.34266 0.82059-0.34266h2.3085v-1.1542h-3.4627v-1.1542h3.4627c0.31861 6e-6 0.58914 0.11423 0.81157 0.34266 0.22844 0.22845 0.34266 0.49897 0.34266 0.81157v1.1542c-5e-6 0.32463-0.11423 0.59816-0.34266 0.82058-0.22845 0.22244-0.49897 0.33365-0.81157 0.33365h-2.3085v1.1542h3.4627v1.1542z"/>
   <path d="m53.464 104.31v-1.1542h3.4627v-1.1542h-3.4627v-1.1542h3.4627v-1.1542h-3.4627v-1.1542h3.4627c0.31861 6e-6 0.58914 0.11423 0.81157 0.34266 0.22844 0.22845 0.34266 0.49897 0.34266 0.81157v3.4627c-4e-6 0.32463-0.11422 0.59816-0.34266 0.82059-0.22845 0.22243-0.49897 0.33364-0.81157 0.33364z"/>
   <path d="m62.922 104.31v-2.3085h-2.3085c-0.32463 0-0.59816-0.11121-0.82059-0.33365-0.22243-0.22844-0.33365-0.50196-0.33365-0.82058v-2.3085h1.1542v2.3085h2.3085v-2.3085h1.1542v5.7712z"/>
   <path d="m70.11 104.31v-1.1542h3.4627v-1.1542h-2.3085c-0.32463 0-0.59816-0.11121-0.82059-0.33365-0.22243-0.22844-0.33365-0.50196-0.33365-0.82058v-1.1542c0-0.31861 0.11122-0.58914 0.33365-0.81157 0.22844-0.22844 0.50197-0.34266 0.82059-0.34266h3.4627v1.1542h-3.4627v1.1542h2.3085c0.31861 0 0.58914 0.11422 0.81157 0.34266 0.22844 0.22844 0.34266 0.49897 0.34266 0.81157v1.1542c-5e-6 0.32463-0.11423 0.59816-0.34266 0.82059-0.22845 0.22243-0.49897 0.33364-0.81157 0.33364z"/>
   <path d="m79.568 103.15v-1.1542h-2.3085v1.1542zm-2.3085 1.1542c-0.32463 0-0.59816-0.11121-0.82059-0.33364-0.22243-0.22845-0.33365-0.50198-0.33365-0.82059v-3.4627c0-0.31861 0.11122-0.58914 0.33365-0.81157 0.22844-0.22844 0.50197-0.34266 0.82059-0.34266h3.4627v1.1542h-3.4627v1.1542h2.3085c0.31861 0 0.58914 0.11422 0.81157 0.34266 0.22844 0.22844 0.34266 0.49897 0.34266 0.81157v1.1542c-5e-6 0.32463-0.11423 0.59816-0.34266 0.82059-0.22845 0.22243-0.49897 0.33364-0.81157 0.33364z"/>
   <path d="m85.563 104.31v-4.6169h-3.4627v-1.1542h3.4627c0.31861 6e-6 0.58914 0.11423 0.81157 0.34266 0.22844 0.22845 0.34266 0.49897 0.34266 0.81157v4.6169z"/>
   <path d="m91.558 103.15v-1.1542h-2.3085v1.1542zm0-2.3085v-1.1542h-2.3085v1.1542zm-2.3085 3.4627c-0.32463 0-0.59816-0.11121-0.82059-0.33364-0.22243-0.22845-0.33365-0.50198-0.33365-0.82059v-3.4627c0-0.31861 0.11122-0.58914 0.33365-0.81157 0.22844-0.22844 0.50197-0.34266 0.82059-0.34266h2.3085c0.31861 6e-6 0.58914 0.11423 0.81157 0.34266 0.22844 0.22845 0.34266 0.49897 0.34266 0.81157v3.4627c-5e-6 0.32463-0.11423 0.59816-0.34266 0.82059-0.22845 0.22243-0.49897 0.33364-0.81157 0.33364z"/>
   <path d="m102.21 100.85v-1.1542h-2.3085v1.1542zm-3.4627 3.4627v-1.1542h3.4627v-1.1542h-2.3085c-0.32463 0-0.59816-0.11121-0.82059-0.33365-0.22243-0.22844-0.33365-0.50196-0.33365-0.82058v-1.1542c0-0.31861 0.11122-0.58914 0.33365-0.81157 0.22844-0.22844 0.50197-0.34266 0.82059-0.34266h2.3085c0.31862 6e-6 0.58914 0.11423 0.81157 0.34266 0.22844 0.22845 0.34266 0.49897 0.34267 0.81157v3.4627c-1e-5 0.32463-0.11423 0.59816-0.34267 0.82059s-0.49897 0.33364-0.81157 0.33364z"/>
   <path d="m108.2 103.15v-1.1542h-2.3085v1.1542zm0-2.3085v-1.1542h-2.3085v1.1542zm-2.3085 3.4627c-0.32463 0-0.59816-0.11121-0.82059-0.33364-0.22243-0.22845-0.33365-0.50198-0.33365-0.82059v-3.4627c0-0.31861 0.11122-0.58914 0.33365-0.81157 0.22844-0.22844 0.50197-0.34266 0.82059-0.34266h2.3085c0.31861 6e-6 0.58914 0.11423 0.81157 0.34266 0.22844 0.22845 0.34266 0.49897 0.34267 0.81157v3.4627c-1e-5 0.32463-0.11423 0.59816-0.34267 0.82059s-0.49897 0.33364-0.81157 0.33364z"/>
   <path d="m114.2 104.31v-4.6169h-3.4627v-1.1542h3.4627c0.31861 6e-6 0.58914 0.11423 0.81157 0.34266 0.22844 0.22845 0.34266 0.49897 0.34266 0.81157v4.6169z"/>
   <path d="m120.19 103.15v-1.1542h-2.3085v1.1542zm-2.3085 1.1542c-0.32463 0-0.59816-0.11121-0.82059-0.33364-0.22243-0.22845-0.33365-0.50198-0.33365-0.82059v-3.4627c0-0.31861 0.11122-0.58914 0.33365-0.81157 0.22844-0.22844 0.50197-0.34266 0.82059-0.34266h3.4627v1.1542h-3.4627v1.1542h2.3085c0.31861 0 0.58913 0.11422 0.81157 0.34266 0.22844 0.22844 0.34266 0.49897 0.34266 0.81157v1.1542c0 0.32463-0.11422 0.59816-0.34266 0.82059-0.22845 0.22243-0.49897 0.33364-0.81157 0.33364z"/>
   <path d="m127.38 104.31v-1.1542h3.4627v-1.1542h-2.3085c-0.32463 0-0.59816-0.11121-0.82059-0.33365-0.22243-0.22844-0.33364-0.50196-0.33364-0.82058v-1.1542c0-0.31861 0.11121-0.58914 0.33364-0.81157 0.22844-0.22844 0.50197-0.34266 0.82059-0.34266h3.4627v1.1542h-3.4627v1.1542h2.3085c0.31862 0 0.58914 0.11422 0.81157 0.34266 0.22844 0.22844 0.34266 0.49897 0.34267 0.81157v1.1542c-1e-5 0.32463-0.11423 0.59816-0.34267 0.82059s-0.49897 0.33364-0.81157 0.33364z"/>
   <path d="m136.84 104.31v-2.3085h-2.3085c-0.32463 0-0.59816-0.11121-0.82059-0.33365-0.22243-0.22844-0.33365-0.50196-0.33365-0.82058v-2.3085h1.1542v2.3085h2.3085v-2.3085h1.1542v5.7712z"/>
   <path d="m139.37 104.31v-1.1542h3.4627v-1.1542h-3.4627v-1.1542h3.4627v-1.1542h-3.4627v-1.1542h3.4627c0.31861 6e-6 0.58914 0.11423 0.81157 0.34266 0.22844 0.22845 0.34266 0.49897 0.34267 0.81157v3.4627c-1e-5 0.32463-0.11423 0.59816-0.34267 0.82059-0.22845 0.22243-0.49897 0.33364-0.81157 0.33364z"/>
   <path d="m145.37 104.31v-2.3085c0-0.31861 0.11122-0.58914 0.33365-0.81157 0.22844-0.22844 0.50197-0.34266 0.82059-0.34266h2.3085v-1.1542h-3.4627v-1.1542h3.4627c0.31861 6e-6 0.58914 0.11423 0.81157 0.34266 0.22844 0.22845 0.34266 0.49897 0.34266 0.81157v1.1542c0 0.32463-0.11422 0.59816-0.34266 0.82058-0.22845 0.22244-0.49897 0.33365-0.81157 0.33365h-2.3085v1.1542h3.4627v1.1542z"/>
  </g>
  <g transform="matrix(.97177 0 0 1.029 -6.5513 -6.9678)" fill="#5e9cb6">
   <path d="m96.948 116.39v-2.4092h-1.6061v2.4092zm-1.6061 0.80305c-0.22586 0-0.41617-0.0774-0.57092-0.23213-0.15476-0.15894-0.23213-0.34924-0.23213-0.57092v-2.4092c0-0.22167 0.07738-0.40989 0.23213-0.56465 0.15894-0.15893 0.34924-0.2384 0.57092-0.23841h1.6061c0.22168 1e-5 0.40989 0.0795 0.56465 0.23841 0.15894 0.15894 0.2384 0.34716 0.23841 0.56465v2.4092c-3e-6 0.22586-0.07947 0.41617-0.23841 0.57092-0.15894 0.15476-0.34716 0.23213-0.56465 0.23213z"/>
   <path d="m101.12 114.78v-0.80306h-1.6061v0.80306zm-2.4092 2.4092v-0.80305h2.4092v-0.80306h-1.6061c-0.22586 0-0.41617-0.0774-0.57092-0.23213-0.15476-0.15894-0.23213-0.34925-0.23213-0.57092v-0.80306c0-0.22167 0.07738-0.40989 0.23213-0.56465 0.15894-0.15893 0.34924-0.2384 0.57092-0.23841h1.6061c0.22167 1e-5 0.40989 0.0795 0.56465 0.23841 0.15893 0.15894 0.2384 0.34716 0.2384 0.56465v2.4092c0 0.22586-0.0795 0.41617-0.2384 0.57092-0.15895 0.15476-0.34716 0.23213-0.56465 0.23213z"/>
   <path d="m108.54 117.19v-3.2122h-0.80306v-0.80306h0.80306c0.22167 1e-5 0.40989 0.0795 0.56465 0.23841 0.15893 0.15894 0.2384 0.34716 0.2384 0.56465v3.2122z"/>
   <path d="m112.71 114.78v-0.80306h-1.6061v0.80306zm-2.4092 2.4092v-0.80305h2.4092v-0.80306h-1.6061c-0.22586 0-0.41616-0.0774-0.57092-0.23213-0.15476-0.15894-0.23213-0.34925-0.23213-0.57092v-0.80306c0-0.22167 0.0774-0.40989 0.23213-0.56465 0.15894-0.15893 0.34925-0.2384 0.57092-0.23841h1.6061c0.22167 1e-5 0.40989 0.0795 0.56464 0.23841 0.15894 0.15894 0.23841 0.34716 0.23841 0.56465v2.4092c0 0.22586-0.0795 0.41617-0.23841 0.57092-0.15894 0.15476-0.34715 0.23213-0.56464 0.23213z"/>
  </g>
  <g transform="matrix(.98194 0 0 1.0184 -6.5513 -6.9678)" fill="url(#i)">
   <path d="m44.937 103.96v-4.6169h-1.1542v-1.1542h1.1542c0.31862 6e-6 0.58914 0.11423 0.81157 0.34266 0.22844 0.22845 0.34266 0.49897 0.34266 0.81157v4.6169z"/>
   <path d="m47.469 103.96v-2.3085c0-0.31862 0.11122-0.58914 0.33365-0.81158 0.22844-0.22844 0.50197-0.34266 0.82059-0.34266h2.3085v-1.1542h-3.4627v-1.1542h3.4627c0.31861 6e-6 0.58914 0.11423 0.81157 0.34266 0.22844 0.22845 0.34266 0.49897 0.34266 0.81157v1.1542c-5e-6 0.32463-0.11423 0.59816-0.34266 0.82059-0.22845 0.22243-0.49897 0.33365-0.81157 0.33365h-2.3085v1.1542h3.4627v1.1542z"/>
   <path d="m53.464 103.96v-1.1542h3.4627v-1.1542h-3.4627v-1.1542h3.4627v-1.1542h-3.4627v-1.1542h3.4627c0.31861 6e-6 0.58914 0.11423 0.81157 0.34266 0.22844 0.22845 0.34266 0.49897 0.34266 0.81157v3.4627c-4e-6 0.32463-0.11422 0.59816-0.34266 0.82059-0.22845 0.22243-0.49897 0.33365-0.81157 0.33365z"/>
   <path d="m62.922 103.96v-2.3085h-2.3085c-0.32463 0-0.59816-0.11122-0.82059-0.33365-0.22243-0.22844-0.33365-0.50197-0.33365-0.82059v-2.3085h1.1542v2.3085h2.3085v-2.3085h1.1542v5.7712z"/>
   <path d="m70.11 103.96v-1.1542h3.4627v-1.1542h-2.3085c-0.32463 0-0.59816-0.11122-0.82059-0.33365-0.22243-0.22844-0.33365-0.50197-0.33365-0.82059v-1.1542c0-0.31861 0.11122-0.58914 0.33365-0.81157 0.22844-0.22844 0.50197-0.34266 0.82059-0.34266h3.4627v1.1542h-3.4627v1.1542h2.3085c0.31861 0 0.58914 0.11422 0.81157 0.34266 0.22844 0.22845 0.34266 0.49897 0.34266 0.81158v1.1542c-5e-6 0.32463-0.11423 0.59816-0.34266 0.82059-0.22845 0.22243-0.49897 0.33365-0.81157 0.33365z"/>
   <path d="m79.568 102.8v-1.1542h-2.3085v1.1542zm-2.3085 1.1542c-0.32463 0-0.59816-0.11122-0.82059-0.33365-0.22243-0.22844-0.33365-0.50197-0.33365-0.82059v-3.4627c0-0.31861 0.11122-0.58914 0.33365-0.81157 0.22844-0.22844 0.50197-0.34266 0.82059-0.34266h3.4627v1.1542h-3.4627v1.1542h2.3085c0.31861 0 0.58914 0.11422 0.81157 0.34266 0.22844 0.22845 0.34266 0.49897 0.34266 0.81158v1.1542c-5e-6 0.32463-0.11423 0.59816-0.34266 0.82059-0.22845 0.22243-0.49897 0.33365-0.81157 0.33365z"/>
   <path d="m85.563 103.96v-4.6169h-3.4627v-1.1542h3.4627c0.31861 6e-6 0.58914 0.11423 0.81157 0.34266 0.22844 0.22845 0.34266 0.49897 0.34266 0.81157v4.6169z"/>
   <path d="m91.558 102.8v-1.1542h-2.3085v1.1542zm0-2.3085v-1.1542h-2.3085v1.1542zm-2.3085 3.4627c-0.32463 0-0.59816-0.11122-0.82059-0.33365-0.22243-0.22844-0.33365-0.50197-0.33365-0.82059v-3.4627c0-0.31861 0.11122-0.58914 0.33365-0.81157 0.22844-0.22844 0.50197-0.34266 0.82059-0.34266h2.3085c0.31861 6e-6 0.58914 0.11423 0.81157 0.34266 0.22844 0.22845 0.34266 0.49897 0.34266 0.81157v3.4627c-5e-6 0.32463-0.11423 0.59816-0.34266 0.82059-0.22845 0.22243-0.49897 0.33365-0.81157 0.33365z"/>
   <path d="m102.21 100.49v-1.1542h-2.3085v1.1542zm-3.4627 3.4627v-1.1542h3.4627v-1.1542h-2.3085c-0.32463 0-0.59816-0.11122-0.82059-0.33365-0.22243-0.22844-0.33365-0.50197-0.33365-0.82059v-1.1542c0-0.31861 0.11122-0.58914 0.33365-0.81157 0.22844-0.22844 0.50197-0.34266 0.82059-0.34266h2.3085c0.31862 6e-6 0.58914 0.11423 0.81157 0.34266 0.22844 0.22845 0.34266 0.49897 0.34267 0.81157v3.4627c-1e-5 0.32463-0.11423 0.59816-0.34267 0.82059s-0.49897 0.33365-0.81157 0.33365z"/>
   <path d="m108.2 102.8v-1.1542h-2.3085v1.1542zm0-2.3085v-1.1542h-2.3085v1.1542zm-2.3085 3.4627c-0.32463 0-0.59816-0.11122-0.82059-0.33365-0.22243-0.22844-0.33365-0.50197-0.33365-0.82059v-3.4627c0-0.31861 0.11122-0.58914 0.33365-0.81157 0.22844-0.22844 0.50197-0.34266 0.82059-0.34266h2.3085c0.31861 6e-6 0.58914 0.11423 0.81157 0.34266 0.22844 0.22845 0.34266 0.49897 0.34267 0.81157v3.4627c-1e-5 0.32463-0.11423 0.59816-0.34267 0.82059s-0.49897 0.33365-0.81157 0.33365z"/>
   <path d="m114.2 103.96v-4.6169h-3.4627v-1.1542h3.4627c0.31861 6e-6 0.58914 0.11423 0.81157 0.34266 0.22844 0.22845 0.34266 0.49897 0.34266 0.81157v4.6169z"/>
   <path d="m120.19 102.8v-1.1542h-2.3085v1.1542zm-2.3085 1.1542c-0.32463 0-0.59816-0.11122-0.82059-0.33365-0.22243-0.22844-0.33365-0.50197-0.33365-0.82059v-3.4627c0-0.31861 0.11122-0.58914 0.33365-0.81157 0.22844-0.22844 0.50197-0.34266 0.82059-0.34266h3.4627v1.1542h-3.4627v1.1542h2.3085c0.31861 0 0.58913 0.11422 0.81157 0.34266 0.22844 0.22845 0.34266 0.49897 0.34266 0.81158v1.1542c0 0.32463-0.11422 0.59816-0.34266 0.82059-0.22845 0.22243-0.49897 0.33365-0.81157 0.33365z"/>
   <path d="m127.38 103.96v-1.1542h3.4627v-1.1542h-2.3085c-0.32463 0-0.59816-0.11122-0.82059-0.33365-0.22243-0.22844-0.33364-0.50197-0.33364-0.82059v-1.1542c0-0.31861 0.11121-0.58914 0.33364-0.81157 0.22844-0.22844 0.50197-0.34266 0.82059-0.34266h3.4627v1.1542h-3.4627v1.1542h2.3085c0.31862 0 0.58914 0.11422 0.81157 0.34266 0.22844 0.22845 0.34266 0.49897 0.34267 0.81158v1.1542c-1e-5 0.32463-0.11423 0.59816-0.34267 0.82059s-0.49897 0.33365-0.81157 0.33365z"/>
   <path d="m136.84 103.96v-2.3085h-2.3085c-0.32463 0-0.59816-0.11122-0.82059-0.33365-0.22243-0.22844-0.33365-0.50197-0.33365-0.82059v-2.3085h1.1542v2.3085h2.3085v-2.3085h1.1542v5.7712z"/>
   <path d="m139.37 103.96v-1.1542h3.4627v-1.1542h-3.4627v-1.1542h3.4627v-1.1542h-3.4627v-1.1542h3.4627c0.31861 6e-6 0.58914 0.11423 0.81157 0.34266 0.22844 0.22845 0.34266 0.49897 0.34267 0.81157v3.4627c-1e-5 0.32463-0.11423 0.59816-0.34267 0.82059-0.22845 0.22243-0.49897 0.33365-0.81157 0.33365z"/>
   <path d="m145.37 103.96v-2.3085c0-0.31862 0.11122-0.58914 0.33365-0.81158 0.22844-0.22844 0.50197-0.34266 0.82059-0.34266h2.3085v-1.1542h-3.4627v-1.1542h3.4627c0.31861 6e-6 0.58914 0.11423 0.81157 0.34266 0.22844 0.22845 0.34266 0.49897 0.34266 0.81157v1.1542c0 0.32463-0.11422 0.59816-0.34266 0.82059-0.22845 0.22243-0.49897 0.33365-0.81157 0.33365h-2.3085v1.1542h3.4627v1.1542z"/>
  </g>
  <g transform="matrix(.97177 0 0 1.029 -6.5513 -6.9678)" fill="url(#j)">
   <path d="m96.948 116.14v-2.4092h-1.6061v2.4092zm-1.6061 0.80306c-0.22586 0-0.41617-0.0774-0.57092-0.23214-0.15476-0.15893-0.23213-0.34924-0.23213-0.57092v-2.4092c0-0.22167 0.07738-0.40989 0.23213-0.56465 0.15894-0.15893 0.34924-0.2384 0.57092-0.2384h1.6061c0.22168 0 0.40989 0.0795 0.56465 0.2384 0.15894 0.15895 0.2384 0.34716 0.23841 0.56465v2.4092c-3e-6 0.22586-0.07947 0.41617-0.23841 0.57092-0.15894 0.15476-0.34716 0.23214-0.56465 0.23214z"/>
   <path d="m101.12 114.54v-0.80306h-1.6061v0.80306zm-2.4092 2.4092v-0.80306h2.4092v-0.80306h-1.6061c-0.22586 1e-5 -0.41617-0.0774-0.57092-0.23213-0.15476-0.15894-0.23213-0.34924-0.23213-0.57092v-0.80306c0-0.22167 0.07738-0.40989 0.23213-0.56465 0.15894-0.15893 0.34924-0.2384 0.57092-0.2384h1.6061c0.22167 0 0.40989 0.0795 0.56465 0.2384 0.15893 0.15895 0.2384 0.34716 0.2384 0.56465v2.4092c0 0.22586-0.0795 0.41617-0.2384 0.57092-0.15895 0.15476-0.34716 0.23214-0.56465 0.23214z"/>
   <path d="m108.54 116.95v-3.2122h-0.80306v-0.80305h0.80306c0.22167 0 0.40989 0.0795 0.56465 0.2384 0.15893 0.15895 0.2384 0.34716 0.2384 0.56465v3.2122z"/>
   <path d="m112.71 114.54v-0.80306h-1.6061v0.80306zm-2.4092 2.4092v-0.80306h2.4092v-0.80306h-1.6061c-0.22586 1e-5 -0.41616-0.0774-0.57092-0.23213-0.15476-0.15894-0.23213-0.34924-0.23213-0.57092v-0.80306c0-0.22167 0.0774-0.40989 0.23213-0.56465 0.15894-0.15893 0.34925-0.2384 0.57092-0.2384h1.6061c0.22167 0 0.40989 0.0795 0.56464 0.2384 0.15894 0.15895 0.23841 0.34716 0.23841 0.56465v2.4092c0 0.22586-0.0795 0.41617-0.23841 0.57092-0.15894 0.15476-0.34715 0.23214-0.56464 0.23214z"/>
  </g>
  <g transform="translate(-6.5513 -6.9678)" fill="#adadad">
   <path d="m41.702 62.396c-1.2021 0.0204-2.1595 0.37889-2.8722 1.0755-0.71268 0.69659-1.0776 1.6089-1.0948 2.737 0.01717 1.1281 0.3821 2.0404 1.0948 2.737 0.71268 0.69658 1.6701 1.0551 2.8722 1.0755 0.51773-0.01018 0.96487-0.08141 1.3414-0.21371s0.6672-0.26459 0.87201-0.39689c0.2048-0.1323 0.30847-0.20353 0.31102-0.21371l-0.61823-0.97887c-0.01074 0.02361-0.18247 0.11807-0.51519 0.28336-0.33274 0.16529-0.76206 0.25974-1.288 0.28336-0.78353-0.01073-1.4061-0.24686-1.8676-0.70839-0.46153-0.46152-0.69766-1.084-0.70839-1.8676 0.01073-0.78352 0.24686-1.406 0.70839-1.8676 0.46152-0.46152 1.084-0.69765 1.8676-0.70839 0.49007 0.01933 0.89321 0.0966 1.2094 0.23184s0.47977 0.21252 0.49072 0.23184l0.61823-0.97887c-0.0075-0.03005-0.22433-0.15026-0.65043-0.36064-0.42611-0.21036-1.0164-0.33058-1.771-0.36064z"/>
   <path d="m45.521 62.603v7.2127h1.4425v-2.4729h2.0093l1.7001 2.4729h1.7001l-1.9062-2.7305v-0.05152c0.01653 0.0032 0.13229-0.06042 0.34728-0.19081 0.21498-0.13038 0.42996-0.34664 0.64495-0.64876 0.21498-0.30212 0.33073-0.70918 0.34728-1.2212-0.0022-0.68477-0.25546-1.2472-0.75991-1.6873-0.50447-0.44005-1.2472-0.6676-2.2282-0.68263zm4.7913 2.3699c-0.0011 0.29731-0.12773 0.56564-0.37996 0.80499-0.25224 0.23935-0.6236 0.36601-1.1141 0.37996h-1.8547v-2.3699h1.8547c0.4905 0.0075 0.86187 0.12129 1.1141 0.34132 0.25222 0.22004 0.37888 0.50124 0.37996 0.84363z"/>
   <path d="m53.539 69.815h5.8732v-1.1849h-4.4307v-1.8032h2.9881v-1.1849h-2.9881v-1.8547h4.3276v-1.1849h-5.7702z"/>
   <path d="m60.712 62.603v7.2127h2.782c1.1753-0.01825 2.1091-0.35527 2.8014-1.0111 0.69228-0.6558 1.0465-1.5209 1.0626-2.5953-0.01611-1.0518-0.3703-1.9105-1.0626-2.576-0.6923-0.66545-1.6261-1.0089-2.8014-1.0304zm2.782 1.1849c0.70731 0.01074 1.2762 0.23399 1.7066 0.66975 0.4304 0.43577 0.6515 1.0197 0.66331 1.7517-0.01181 0.73201-0.23292 1.3159-0.66331 1.7517-0.43041 0.43577-0.99926 0.65902-1.7066 0.66975h-1.3395v-4.8428z"/>
   <path d="m70.253 62.603h-1.4425v7.2127h1.4425z"/>
   <path d="m71.47 62.603v1.1849h2.4729v6.0278h1.4425v-6.0278h2.4729v-1.1849z"/>
   <path d="m86.885 62.396c-1.2021 0.0204-2.1595 0.37889-2.8722 1.0755-0.71268 0.69659-1.0776 1.6089-1.0948 2.737 0.01717 1.1281 0.3821 2.0404 1.0948 2.737 0.71268 0.69658 1.6701 1.0551 2.8722 1.0755 0.51773-0.01018 0.96487-0.08141 1.3414-0.21371s0.6672-0.26459 0.87201-0.39689c0.2048-0.1323 0.30847-0.20353 0.31102-0.21371l-0.61823-0.97887c-0.01074 0.02361-0.18247 0.11807-0.51519 0.28336-0.33274 0.16529-0.76206 0.25974-1.288 0.28336-0.78353-0.01073-1.4061-0.24686-1.8676-0.70839-0.46153-0.46152-0.69766-1.084-0.70839-1.8676 0.01073-0.78352 0.24686-1.406 0.70839-1.8676 0.46152-0.46152 1.084-0.69765 1.8676-0.70839 0.49007 0.01933 0.89321 0.0966 1.2094 0.23184s0.47977 0.21252 0.49072 0.23184l0.61823-0.97887c-0.0075-0.03005-0.22433-0.15026-0.65043-0.36064-0.42611-0.21036-1.0164-0.33058-1.771-0.36064z"/>
   <path d="m94.754 62.603h-1.8032l-2.9881 7.2127h1.5456l0.56671-1.4425h3.5548l0.56671 1.4425h1.5456zm-0.92735 1.5456h0.05152l1.2365 2.9881h-2.5244z"/>
   <path d="m98.864 62.603v7.2127h1.4425v-2.4729h2.0093l1.7001 2.4729h1.7001l-1.9062-2.7305v-0.05152c0.0165 0.0032 0.13229-0.06042 0.34728-0.19081 0.21498-0.13038 0.42996-0.34664 0.64495-0.64876 0.21497-0.30212 0.33073-0.70918 0.34727-1.2212-2e-3 -0.68477-0.25545-1.2472-0.75991-1.6873-0.50446-0.44005-1.2472-0.6676-2.2282-0.68263zm4.7913 2.3699c-1e-3 0.29731-0.12773 0.56564-0.37995 0.80499-0.25224 0.23935-0.62361 0.36601-1.1141 0.37996h-1.8547v-2.3699h1.8547c0.4905 0.0075 0.86187 0.12129 1.1141 0.34132 0.25222 0.22004 0.37887 0.50124 0.37995 0.84363z"/>
   <path d="m106.88 62.603v7.2127h2.782c1.1753-0.01825 2.1091-0.35527 2.8014-1.0111 0.69228-0.6558 1.0465-1.5209 1.0626-2.5953-0.0161-1.0518-0.3703-1.9105-1.0626-2.576-0.6923-0.66545-1.6261-1.0089-2.8014-1.0304zm2.782 1.1849c0.70732 0.01074 1.2762 0.23399 1.7066 0.66975 0.4304 0.43577 0.6515 1.0197 0.66331 1.7517-0.0118 0.73201-0.23291 1.3159-0.66331 1.7517-0.4304 0.43577-0.99926 0.65902-1.7066 0.66975h-1.3395v-4.8428z"/>
  </g>
  <g transform="translate(-6.5513 -6.9678)" fill="#f0f0f0">
   <path d="m41.702 62.257c-1.2021 0.0204-2.1595 0.37889-2.8722 1.0755-0.71268 0.69659-1.0776 1.6089-1.0948 2.737 0.01717 1.1281 0.3821 2.0404 1.0948 2.737 0.71268 0.69658 1.6701 1.0551 2.8722 1.0755 0.51773-0.01018 0.96487-0.08141 1.3414-0.21371s0.6672-0.26459 0.87201-0.39689c0.2048-0.1323 0.30847-0.20353 0.31102-0.21371l-0.61823-0.97887c-0.01074 0.02362-0.18247 0.11807-0.51519 0.28336-0.33274 0.16529-0.76206 0.25974-1.288 0.28336-0.78353-0.01073-1.4061-0.24686-1.8676-0.70839-0.46153-0.46152-0.69766-1.084-0.70839-1.8676 0.01073-0.78352 0.24686-1.406 0.70839-1.8676 0.46152-0.46152 1.084-0.69765 1.8676-0.70839 0.49007 0.01933 0.89321 0.0966 1.2094 0.23184s0.47977 0.21252 0.49072 0.23184l0.61823-0.97887c-0.0075-0.03005-0.22433-0.15026-0.65043-0.36064-0.42611-0.21036-1.0164-0.33058-1.771-0.36064z"/>
   <path d="m45.521 62.463v7.2127h1.4425v-2.4729h2.0093l1.7001 2.4729h1.7001l-1.9062-2.7305v-0.05152c0.01653 0.0032 0.13229-0.06042 0.34728-0.19081 0.21498-0.13038 0.42996-0.34664 0.64495-0.64876 0.21498-0.30212 0.33073-0.70918 0.34728-1.2212-0.0022-0.68477-0.25546-1.2472-0.75991-1.6873-0.50447-0.44005-1.2472-0.6676-2.2282-0.68263zm4.7913 2.3699c-0.0011 0.29731-0.12773 0.56564-0.37996 0.80499-0.25224 0.23935-0.6236 0.36601-1.1141 0.37996h-1.8547v-2.3699h1.8547c0.4905 0.0075 0.86187 0.12129 1.1141 0.34132 0.25222 0.22004 0.37888 0.50124 0.37996 0.84363z"/>
   <path d="m53.539 69.676h5.8732v-1.1849h-4.4307v-1.8032h2.9881v-1.1849h-2.9881v-1.8547h4.3276v-1.1849h-5.7702z"/>
   <path d="m60.712 62.463v7.2127h2.782c1.1753-0.01825 2.1091-0.35527 2.8014-1.0111 0.69228-0.6558 1.0465-1.5209 1.0626-2.5953-0.01611-1.0518-0.3703-1.9105-1.0626-2.576-0.6923-0.66545-1.6261-1.0089-2.8014-1.0304zm2.782 1.1849c0.70731 0.01074 1.2762 0.23399 1.7066 0.66975 0.4304 0.43577 0.6515 1.0197 0.66331 1.7517-0.01181 0.73201-0.23292 1.3159-0.66331 1.7517-0.43041 0.43577-0.99926 0.65902-1.7066 0.66975h-1.3395v-4.8428z"/>
   <path d="m70.253 62.463h-1.4425v7.2127h1.4425z"/>
   <path d="m71.47 62.463v1.1849h2.4729v6.0278h1.4425v-6.0278h2.4729v-1.1849z"/>
   <path d="m86.885 62.257c-1.2021 0.0204-2.1595 0.37889-2.8722 1.0755-0.71268 0.69659-1.0776 1.6089-1.0948 2.737 0.01717 1.1281 0.3821 2.0404 1.0948 2.737 0.71268 0.69658 1.6701 1.0551 2.8722 1.0755 0.51773-0.01018 0.96487-0.08141 1.3414-0.21371s0.6672-0.26459 0.87201-0.39689c0.2048-0.1323 0.30847-0.20353 0.31102-0.21371l-0.61823-0.97887c-0.01074 0.02362-0.18247 0.11807-0.51519 0.28336-0.33274 0.16529-0.76206 0.25974-1.288 0.28336-0.78353-0.01073-1.4061-0.24686-1.8676-0.70839-0.46153-0.46152-0.69766-1.084-0.70839-1.8676 0.01073-0.78352 0.24686-1.406 0.70839-1.8676 0.46152-0.46152 1.084-0.69765 1.8676-0.70839 0.49007 0.01933 0.89321 0.0966 1.2094 0.23184s0.47977 0.21252 0.49072 0.23184l0.61823-0.97887c-0.0075-0.03005-0.22433-0.15026-0.65043-0.36064-0.42611-0.21036-1.0164-0.33058-1.771-0.36064z"/>
   <path d="m94.754 62.463h-1.8032l-2.9881 7.2127h1.5456l0.56671-1.4425h3.5548l0.56671 1.4425h1.5456zm-0.92735 1.5456h0.05152l1.2365 2.9881h-2.5244z"/>
   <path d="m98.864 62.463v7.2127h1.4425v-2.4729h2.0093l1.7001 2.4729h1.7001l-1.9062-2.7305v-0.05152c0.0165 0.0032 0.13229-0.06042 0.34728-0.19081 0.21498-0.13038 0.42996-0.34664 0.64495-0.64876 0.21497-0.30212 0.33073-0.70918 0.34727-1.2212-2e-3 -0.68477-0.25545-1.2472-0.75991-1.6873-0.50446-0.44005-1.2472-0.6676-2.2282-0.68263zm4.7913 2.3699c-1e-3 0.29731-0.12773 0.56564-0.37995 0.80499-0.25224 0.23935-0.62361 0.36601-1.1141 0.37996h-1.8547v-2.3699h1.8547c0.4905 0.0075 0.86187 0.12129 1.1141 0.34132 0.25222 0.22004 0.37887 0.50124 0.37995 0.84363z"/>
   <path d="m106.88 62.463v7.2127h2.782c1.1753-0.01825 2.1091-0.35527 2.8014-1.0111 0.69228-0.6558 1.0465-1.5209 1.0626-2.5953-0.0161-1.0518-0.3703-1.9105-1.0626-2.576-0.6923-0.66545-1.6261-1.0089-2.8014-1.0304zm2.782 1.1849c0.70732 0.01074 1.2762 0.23399 1.7066 0.66975 0.4304 0.43577 0.6515 1.0197 0.66331 1.7517-0.0118 0.73201-0.23291 1.3159-0.66331 1.7517-0.4304 0.43577-0.99926 0.65902-1.7066 0.66975h-1.3395v-4.8428z"/>
  </g>
  <g fill="#548ba2">
   <path d="m83.851 106.59 0.36591-0.7841h0.01046l0.115 0.99319h0.30318l-0.17773-1.4636h-0.32409l-0.41818 0.90956h-0.01045l-0.41818-0.90956h-0.32409l-0.17773 1.4636h0.30318l0.115-0.99319h0.01045l0.36591 0.7841z"/>
   <path d="m84.88 106.07c0.0039 0.22891 0.0771 0.41404 0.21955 0.5554 0.14244 0.14135 0.33063 0.2141 0.56455 0.21824 0.23392-4e-3 0.4221-0.0769 0.56455-0.21824 0.14244-0.14136 0.21562-0.32649 0.21955-0.5554-0.0039-0.22891-0.0771-0.41405-0.21955-0.5554-0.14245-0.14136-0.33063-0.2141-0.56455-0.21824-0.23392 4e-3 -0.4221 0.0769-0.56455 0.21824-0.14244 0.14135-0.21563 0.32649-0.21955 0.5554zm1.265 0c-0.0031 0.15899-0.04922 0.28532-0.13852 0.37898-0.0893 0.0937-0.20343 0.14157-0.34239 0.14375-0.13896-2e-3 -0.25309-0.0501-0.34239-0.14375-0.0893-0.0937-0.13547-0.21999-0.13852-0.37898 3e-3 -0.159 0.04922-0.28533 0.13852-0.37898 0.0893-0.0937 0.20343-0.14157 0.34239-0.14375 0.13896 2e-3 0.25309 0.0501 0.34239 0.14375 0.0893 0.0936 0.13547 0.21998 0.13852 0.37898z"/>
   <path d="m87.777 106.34-0.72137-1.0036h-0.31364v1.4636h0.29273v-1.0036h0.01046l0.72137 1.0036h0.31364v-1.4636h-0.29273v1.0036z"/>
   <path d="m88.327 105.34v0.24046h0.50182v1.2232h0.29273v-1.2232h0.50182v-0.24046z"/>
   <path d="m90.915 105.34v0.61683h-0.75273v-0.61683h-0.29273v1.4636h0.29273v-0.60637h0.75273v0.60637h0.29273v-1.4636z"/>
   <path d="m93.124 105.23-0.805 1.6727h0.30318l0.805-1.6727z"/>
   <path d="m95.122 106.05h-0.02091l-0.41818-0.71092h-0.31364l0.59591 1.0036v0.46h0.29273v-0.46l0.59591-1.0036h-0.31364z"/>
   <path d="m96.063 106.8h1.1918v-0.24046h-0.8991v-0.36591h0.60637v-0.24045h-0.60637v-0.37637h0.87819v-0.24046h-1.1709z"/>
   <path d="m98.341 105.34h-0.36591l-0.60637 1.4636h0.31364l0.115-0.29273h0.72137l0.115 0.29273h0.31364zm-0.18818 0.31364h0.01045l0.25091 0.60637h-0.51228z"/>
   <path d="m99.175 105.34v1.4636h0.29273v-0.50182h0.40773l0.345 0.50182h0.34501l-0.38683-0.55409v-0.0105c3e-3 6.5e-4 0.0268-0.0123 0.0705-0.0387 0.0436-0.0265 0.0873-0.0703 0.13087-0.13165 0.0436-0.0613 0.0671-0.14391 0.0705-0.24781-4.3e-4 -0.13896-0.0518-0.25309-0.1542-0.34239-0.10237-0.0893-0.25309-0.13548-0.45216-0.13853zm0.97228 0.48092c-2.2e-4 0.0603-0.0259 0.11478-0.0771 0.16335-0.0512 0.0486-0.12655 0.0743-0.22608 0.0771h-0.37637v-0.48091h0.37637c0.09954 2e-3 0.17489 0.0246 0.22608 0.0693 0.0512 0.0446 0.0769 0.10172 0.0771 0.1712z"/>
  </g>
  <g transform="translate(-6.5513 -6.9678)" fill="#50869c">
   <path d="m40.038 128.04h-0.06398l-1.2796-2.1754h-0.95973l1.8235 3.0712v1.4076h0.89575v-1.4076l1.8235-3.0712h-0.95973z"/>
   <path d="m42.576 128.1c0.012 0.70047 0.23593 1.267 0.67181 1.6995 0.43588 0.43255 1.0117 0.65516 1.7275 0.66782 0.7158-0.0127 1.2916-0.23527 1.7275-0.66782 0.43587-0.43254 0.65981-0.99905 0.67181-1.6995-0.012-0.70047-0.23594-1.267-0.67181-1.6995-0.43588-0.43254-1.0117-0.65515-1.7275-0.66782-0.7158 0.0127-1.2916 0.23528-1.7275 0.66782-0.43588 0.43255-0.65982 0.99906-0.67181 1.6995zm3.8709 0c-0.0093 0.48653-0.15063 0.87309-0.42388 1.1597-0.27326 0.28659-0.6225 0.43322-1.0477 0.43988-0.42522-7e-3 -0.77445-0.15329-1.0477-0.43988-0.27326-0.28658-0.41455-0.67314-0.42388-1.1597 0.0093-0.48653 0.15062-0.87309 0.42388-1.1597 0.27326-0.28659 0.62249-0.43321 1.0477-0.43988 0.42521 7e-3 0.77445 0.15329 1.0477 0.43988s0.41455 0.67315 0.42388 1.1597z"/>
   <path d="m50.207 130.47c0.63116-0.01 1.1284-0.18995 1.4916-0.53985 0.36323-0.3499 0.54851-0.80977 0.55585-1.3796v-2.6872h-0.89575v2.6872c-4e-3 0.3559-0.10797 0.63583-0.31191 0.83977-0.20395 0.20394-0.48387 0.30791-0.83977 0.31191-0.3559-4e-3 -0.63583-0.10797-0.83977-0.31191s-0.30792-0.48387-0.31191-0.83977v-2.6872h-0.89575v2.6872c0.0073 0.56985 0.19261 1.0297 0.55585 1.3796 0.36323 0.3499 0.86043 0.52985 1.4916 0.53985z"/>
   <path d="m53.302 125.86v4.4788h0.89575v-1.5356h1.2477l1.0557 1.5356h1.0557l-1.1837-1.6955v-0.032c0.01026 2e-3 0.08215-0.0375 0.21564-0.11848 0.13349-0.081 0.26698-0.21525 0.40048-0.40285 0.13349-0.1876 0.20537-0.44037 0.21564-0.75831-0.0013-0.42521-0.15863-0.77445-0.47187-1.0477-0.31325-0.27325-0.77446-0.41455-1.3836-0.42388zm2.9752 1.4716c-6.7e-4 0.18462-0.07932 0.35124-0.23594 0.49986-0.15663 0.14863-0.38723 0.22727-0.69181 0.23594h-1.1517v-1.4716h1.1517c0.30458 5e-3 0.53518 0.0753 0.69181 0.21194 0.15662 0.13664 0.23526 0.31125 0.23594 0.52386z"/>
   <path d="m63.918 128.93-2.2074-3.0712h-0.95973v4.4788h0.89575v-3.0712h0.03199l2.2074 3.0712h0.95973v-4.4788h-0.89575v3.0712z"/>
   <path d="m68.431 125.86h-1.1197l-1.8555 4.4788h0.95973l0.3519-0.89576h2.2074l0.3519 0.89576h0.95973zm-0.57584 0.95973h0.03199l0.76779 1.8555h-1.5676z"/>
   <path d="m73.954 129.7 1.1197-2.3993h0.03199l0.3519 3.0392h0.92774l-0.54385-4.4788h-0.99172l-1.2796 2.7832h-0.03199l-1.2796-2.7832h-0.99172l-0.54385 4.4788h0.92774l0.3519-3.0392h0.03199l1.1197 2.3993z"/>
   <path d="m77.274 130.34h3.647v-0.7358h-2.7512v-1.1197h1.8555v-0.7358h-1.8555v-1.1517h2.6873v-0.73579h-3.583z"/>
  </g>
  <g fill="#548ba2">
   <path d="m75.526 111.06h0.36591l0.575-1.4636h-0.32409l-0.42864 1.15h-0.01045l-0.42864-1.15h-0.32409z"/>
   <path d="m77.513 109.6h-0.36591l-0.60637 1.4636h0.31364l0.115-0.29273h0.72137l0.115 0.29273h0.31364zm-0.18818 0.31364h0.01045l0.25091 0.60637h-0.51228z"/>
   <path d="m78.347 111.06h1.1186v-0.24046h-0.82591v-1.2232h-0.29273z"/>
   <path d="m80.006 109.6h-0.29273v1.4636h0.29273z"/>
   <path d="m80.384 109.6v1.4636h0.56455c0.23849-4e-3 0.42798-0.0721 0.56847-0.20517 0.14048-0.13308 0.21236-0.30863 0.21563-0.52666-0.0033-0.21344-0.07514-0.38769-0.21563-0.52273-0.14048-0.13503-0.32998-0.20473-0.56847-0.20909zm0.56455 0.24046c0.14353 2e-3 0.25897 0.0475 0.34631 0.13591 0.08734 0.0884 0.13221 0.20691 0.1346 0.35545-0.0024 0.14855-0.04726 0.26703-0.1346 0.35546-0.08734 0.0884-0.20278 0.13373-0.34631 0.13591h-0.27182v-0.98273z"/>
   <path d="m74.969 111.86v0.24045h0.50182v1.2232h0.29273v-1.2232h0.50182v-0.24045z"/>
   <path d="m77.557 111.86v0.61682h-0.75273v-0.61682h-0.29273v1.4636h0.29273v-0.60637h0.75273v0.60637h0.29273v-1.4636z"/>
   <path d="m78.229 111.86v1.4636h0.29273v-0.50182h0.40773l0.345 0.50182h0.345l-0.38682-0.55409v-0.0105c0.0034 6.5e-4 0.02685-0.0123 0.07047-0.0387 0.04362-0.0265 0.08725-0.0703 0.13088-0.13165 0.04362-0.0613 0.06712-0.14391 0.07047-0.24781-4.37e-4 -0.13896-0.05184-0.25309-0.1542-0.34239-0.10237-0.0893-0.25309-0.13547-0.45216-0.13852zm0.97228 0.48091c-2.19e-4 0.0603-0.02592 0.11478-0.0771 0.16335-0.05119 0.0486-0.12654 0.0743-0.22608 0.0771h-0.37637v-0.48091h0.37637c0.09954 2e-3 0.1749 0.0246 0.22608 0.0693s0.07688 0.10172 0.0771 0.1712z"/>
   <path d="m80.516 113.36c0.20626-3e-3 0.36874-0.0621 0.48745-0.17642 0.1187-0.11435 0.17925-0.26463 0.18165-0.45086v-0.87818h-0.29273v0.87818c-0.0013 0.11631-0.03529 0.20779-0.10193 0.27444-0.06665 0.0666-0.15813 0.10062-0.27443 0.10193-0.11631-1e-3 -0.20779-0.0353-0.27443-0.10193-0.06665-0.0667-0.10063-0.15813-0.10193-0.27444v-0.87818h-0.29273v0.87818c0.0024 0.18623 0.06294 0.33651 0.18165 0.45086 0.1187 0.11435 0.28118 0.17315 0.48745 0.17642z"/>
  </g>
  <path d="m96.488 109.46-2.2416 4.1115" fill="#e2e2e2" stroke="url(#k)" stroke-width=".92321"/>
  <rect x="123.49" y="113.69" width="27.992" height="13.706" ry=".56454" fill="#f0f0f0" opacity=".85771"/>
  <g transform="matrix(1.1832 0 0 1.1832 -14.386 -26.258)">
   <g transform="matrix(.84532 0 0 .84532 -27.271 66.33)">
    <rect x="82.879" y="19.777" width="17.143" height="17.143" ry="2.5848" fill="#d6c056" opacity=".85771"/>
    <rect x="82.879" y="19.777" width="17.143" height="17.143" ry="2.5848" fill="url(#l)" opacity=".85771"/>
    <rect x="82.968" y="19.866" width="16.965" height="16.965" ry="2.5207" fill="none" opacity=".85771" stroke="#848484" stroke-width=".21767"/>
    <rect x="88.683" y="25.581" width="5.5357" height="5.5357" ry="0" fill="none" opacity=".85771" stroke="#505050" stroke-width=".1"/>
    <path d="m91.451 25.581v-1.5403" fill="#ada47a" stroke="#505050" stroke-width=".1"/>
    <path d="m91.451 31.116v1.5403" fill="#ada47a" stroke="#505050" stroke-width=".1"/>
    <path d="m94.219 28.349 5.7146-1e-6" fill="#ada47a" stroke="#505050" stroke-width=".1"/>
    <path d="m88.683 28.349-5.7146 1e-6" fill="#ada47a" stroke="#505050" stroke-width=".1"/>
    <path d="m94.219 25.581 0.94638-0.80573h4.7682" fill="none" stroke="#505050" stroke-width=".1"/>
    <path d="m88.683 31.116-0.94638 0.80573h-4.7682" fill="none" stroke="#505050" stroke-width=".1"/>
    <path d="m94.219 31.116 0.94638 0.80573h4.7682" fill="none" stroke="#505050" stroke-width=".1"/>
    <path d="m88.683 25.581-0.94638-0.80573h-4.7682" fill="none" stroke="#505050" stroke-width=".1"/>
    <path d="m94.933 19.866-3.4821 4.1743" fill="none" stroke="#505050" stroke-width=".1"/>
    <path d="m94.933 36.831-3.4821-4.1743" fill="none" stroke="#505050" stroke-width=".1"/>
    <path d="m87.969 19.866 3.4821 4.1743" fill="none" stroke="#505050" stroke-width=".1"/>
    <path d="m87.969 36.831 3.4821-4.1743" fill="none" stroke="#505050" stroke-width=".1"/>
   </g>
  </g>
 </g>
</svg>
